<svg xmlns="http://www.w3.org/2000/svg" xmlns:xlink="http://www.w3.org/1999/xlink" width="500" zoomAndPan="magnify" viewBox="0 0 375 374.999991" height="500" preserveAspectRatio="xMidYMid meet" version="1.0"><defs><clipPath id="9f1c6f60a2"><path d="M 33.363281 115 L 151 115 L 151 313.496094 L 33.363281 313.496094 Z M 33.363281 115 " clip-rule="nonzero"/></clipPath><clipPath id="ac877afeaf"><path d="M 224 115 L 341.613281 115 L 341.613281 313.496094 L 224 313.496094 Z M 224 115 " clip-rule="nonzero"/></clipPath><clipPath id="a9d3c42114"><path d="M 103 61.496094 L 272 61.496094 L 272 307 L 103 307 Z M 103 61.496094 " clip-rule="nonzero"/></clipPath><clipPath id="5d51d1d594"><path d="M 112.5 158 L 262.5 158 L 262.5 237.75 L 112.5 237.75 Z M 112.5 158 " clip-rule="nonzero"/></clipPath><clipPath id="7667560b87"><path d="M 112.5 194 L 262.5 194 L 262.5 237.75 L 112.5 237.75 Z M 112.5 194 " clip-rule="nonzero"/></clipPath><clipPath id="21eb6b7f89"><path d="M 203 137.25 L 246 137.25 L 246 180 L 203 180 Z M 203 137.25 " clip-rule="nonzero"/></clipPath></defs><g clip-path="url(#9f1c6f60a2)"><path fill="#0cc0df" d="M 50.816406 255.453125 L 50.773438 117.023438 C 45.4375 116.066406 39.691406 115.496094 33.386719 115.496094 L 33.386719 270.507812 C 33.386719 270.507812 103.234375 278.707031 150.238281 313.488281 C 128.515625 288.460938 96.074219 267.683594 50.816406 255.453125 " fill-opacity="1" fill-rule="nonzero"/></g><path fill="#5ce1e6" d="M 86.070312 225.171875 L 85.960938 96.238281 C 80.523438 93.59375 74.625 91.265625 68.160156 89.394531 L 68.160156 244.402344 C 68.160156 244.402344 124.710938 259.445312 163.515625 303.71875 C 145.699219 273.328125 120.472656 242.59375 86.070312 225.171875 " fill-opacity="1" fill-rule="nonzero"/><g clip-path="url(#ac877afeaf)"><path fill="#0cc0df" d="M 324.164062 255.453125 L 324.207031 117.023438 C 329.542969 116.066406 335.285156 115.496094 341.59375 115.496094 L 341.59375 270.507812 C 341.59375 270.507812 271.746094 278.707031 224.742188 313.488281 C 246.460938 288.460938 278.902344 267.683594 324.164062 255.453125 " fill-opacity="1" fill-rule="nonzero"/></g><path fill="#5ce1e6" d="M 288.910156 225.171875 L 289.015625 96.238281 C 294.453125 93.59375 300.351562 91.265625 306.820312 89.394531 L 306.820312 244.402344 C 306.820312 244.402344 250.269531 259.445312 211.460938 303.71875 C 229.28125 273.328125 254.507812 242.59375 288.910156 225.171875 " fill-opacity="1" fill-rule="nonzero"/><g clip-path="url(#a9d3c42114)"><path fill="#0097b2" d="M 187.488281 148.929688 C 187.488281 148.929688 164.410156 100.476562 103.347656 61.5 L 103.347656 216.511719 C 103.347656 216.511719 149.03125 246.664062 184.695312 306.78125 L 184.695312 225.289062 C 179.882812 224.210938 176.3125 218.980469 176.3125 214.488281 C 176.3125 209.152344 181.316406 203.339844 187.488281 203.339844 C 193.664062 203.339844 198.667969 209.152344 198.667969 214.488281 C 198.667969 218.980469 195.097656 224.210938 190.285156 225.289062 L 190.285156 306.78125 C 225.945312 246.660156 271.632812 216.511719 271.632812 216.511719 L 271.632812 61.5 C 210.570312 100.476562 187.488281 148.929688 187.488281 148.929688 " fill-opacity="1" fill-rule="nonzero"/></g><g clip-path="url(#5d51d1d594)"><path fill="#f4f5f7" d="M 261.878906 196.691406 C 261.609375 196.296875 255.097656 186.925781 242.671875 177.460938 C 235.375 171.898438 227.542969 167.46875 219.390625 164.285156 C 209.183594 160.304688 198.453125 158.285156 187.5 158.285156 C 176.546875 158.285156 165.816406 160.304688 155.609375 164.285156 C 147.457031 167.46875 139.625 171.898438 132.328125 177.460938 C 119.902344 186.925781 113.390625 196.296875 113.121094 196.691406 C 112.574219 197.492188 112.574219 198.542969 113.121094 199.339844 C 113.390625 199.734375 119.902344 209.105469 132.328125 218.574219 C 139.625 224.132812 147.457031 228.566406 155.609375 231.746094 C 165.816406 235.730469 176.546875 237.75 187.5 237.75 C 198.453125 237.75 209.183594 235.730469 219.390625 231.746094 C 227.542969 228.566406 235.375 224.132812 242.671875 218.574219 C 255.097656 209.109375 261.609375 199.734375 261.878906 199.339844 C 262.429688 198.542969 262.429688 197.492188 261.878906 196.691406 Z M 261.878906 196.691406 " fill-opacity="1" fill-rule="nonzero"/></g><g clip-path="url(#7667560b87)"><path fill="#eaebef" d="M 260.242188 194.511719 C 257.574219 197.890625 251.679688 204.699219 242.671875 211.5625 C 235.375 217.121094 227.542969 221.554688 219.390625 224.734375 C 209.183594 228.71875 198.453125 230.738281 187.5 230.738281 C 176.546875 230.738281 165.816406 228.71875 155.609375 224.734375 C 147.457031 221.554688 139.625 217.121094 132.328125 211.5625 C 123.320312 204.699219 117.425781 197.890625 114.757812 194.511719 C 113.746094 195.792969 113.195312 196.585938 113.121094 196.691406 C 112.574219 197.492188 112.574219 198.542969 113.121094 199.339844 C 113.390625 199.734375 119.902344 209.109375 132.328125 218.574219 C 139.625 224.132812 147.457031 228.566406 155.609375 231.746094 C 165.816406 235.730469 176.546875 237.75 187.5 237.75 C 198.453125 237.75 209.183594 235.730469 219.390625 231.746094 C 227.542969 228.566406 235.375 224.132812 242.671875 218.574219 C 255.097656 209.109375 261.609375 199.734375 261.878906 199.339844 C 262.429688 198.542969 262.429688 197.492188 261.878906 196.691406 C 261.804688 196.585938 261.253906 195.792969 260.242188 194.511719 Z M 260.242188 194.511719 " fill-opacity="1" fill-rule="nonzero"/></g><path fill="#69bff5" d="M 187.5 167.632812 C 170.746094 167.632812 157.117188 181.261719 157.117188 198.015625 C 157.117188 214.769531 170.746094 228.398438 187.5 228.398438 C 204.253906 228.398438 217.882812 214.769531 217.882812 198.015625 C 217.882812 181.261719 204.253906 167.632812 187.5 167.632812 Z M 187.5 167.632812 " fill-opacity="1" fill-rule="nonzero"/><path fill="#44aff2" d="M 194.511719 223.726562 C 177.757812 223.726562 164.128906 210.097656 164.128906 193.34375 C 164.128906 184.316406 168.089844 176.195312 174.359375 170.625 C 164.167969 175.535156 157.117188 185.96875 157.117188 198.015625 C 157.117188 214.769531 170.746094 228.398438 187.5 228.398438 C 195.226562 228.398438 202.285156 225.5 207.652344 220.734375 C 203.671875 222.652344 199.214844 223.726562 194.511719 223.726562 Z M 194.511719 223.726562 " fill-opacity="1" fill-rule="nonzero"/><path fill="#6b768d" d="M 187.5 191.003906 C 183.632812 191.003906 180.488281 194.152344 180.488281 198.015625 C 180.488281 201.882812 183.632812 205.027344 187.5 205.027344 C 191.367188 205.027344 194.511719 201.882812 194.511719 198.015625 C 194.511719 194.152344 191.367188 191.003906 187.5 191.003906 Z M 187.5 191.003906 " fill-opacity="1" fill-rule="nonzero"/><g clip-path="url(#21eb6b7f89)"><path fill="#78d67f" d="M 224.894531 137.25 C 213.296875 137.25 203.859375 146.683594 203.859375 158.285156 C 203.859375 169.882812 213.296875 179.320312 224.894531 179.320312 C 236.492188 179.320312 245.929688 169.882812 245.929688 158.285156 C 245.929688 146.683594 236.492188 137.25 224.894531 137.25 Z M 224.894531 137.25 " fill-opacity="1" fill-rule="nonzero"/></g><path fill="#65d06c" d="M 231.90625 174.644531 C 220.308594 174.644531 210.871094 165.207031 210.871094 153.609375 C 210.871094 147.835938 213.210938 142.601562 216.988281 138.796875 C 209.296875 141.929688 203.859375 149.480469 203.859375 158.285156 C 203.859375 169.882812 213.296875 179.320312 224.894531 179.320312 C 230.722656 179.320312 236 176.9375 239.816406 173.097656 C 237.371094 174.089844 234.703125 174.644531 231.90625 174.644531 Z M 231.90625 174.644531 " fill-opacity="1" fill-rule="nonzero"/><path fill="#f4f5f7" d="M 224.894531 167.632812 C 223.605469 167.632812 222.558594 166.585938 222.558594 165.296875 L 222.558594 156.914062 L 221.875 157.597656 C 220.960938 158.511719 219.480469 158.511719 218.570312 157.597656 C 217.65625 156.6875 217.65625 155.207031 218.570312 154.296875 L 223.242188 149.621094 C 223.910156 148.953125 224.917969 148.753906 225.789062 149.113281 C 226.664062 149.476562 227.234375 150.328125 227.234375 151.273438 L 227.234375 165.296875 C 227.234375 166.585938 226.1875 167.632812 224.894531 167.632812 Z M 224.894531 167.632812 " fill-opacity="1" fill-rule="nonzero"/></svg>